<?xml version="1.0" standalone="no"?>
<!DOCTYPE svg PUBLIC "-//W3C//DTD SVG 20010904//EN"
 "http://www.w3.org/TR/2001/REC-SVG-20010904/DTD/svg10.dtd">
<svg version="1.0" xmlns="http://www.w3.org/2000/svg"
 width="3070.000000pt" height="3070.000000pt" viewBox="0 0 3070.000000 3070.000000"
 preserveAspectRatio="xMidYMid meet">
<metadata>
Created by potrace 1.14, written by Peter Selinger 2001-2017
</metadata>
<g transform="translate(0.000000,3070.000000) scale(0.100000,-0.100000)"
fill="#000000" stroke="none">
<path d="M25207 28923 c-1 0 -117 -4 -257 -8 -140 -4 -284 -8 -320 -10 -228
-11 -328 -17 -350 -20 -14 -2 -75 -6 -135 -10 -61 -3 -121 -7 -135 -9 -14 -3
-65 -7 -114 -11 -50 -4 -97 -8 -105 -10 -9 -1 -47 -6 -86 -10 -180 -18 -234
-24 -310 -35 -38 -5 -92 -12 -120 -16 -47 -5 -150 -20 -205 -29 -14 -2 -43 -7
-65 -9 -22 -3 -51 -8 -65 -11 -13 -2 -42 -7 -65 -10 -22 -3 -66 -10 -97 -16
-32 -6 -70 -12 -85 -15 -16 -3 -64 -12 -108 -20 -44 -9 -93 -18 -110 -21 -16
-2 -61 -11 -100 -20 -38 -8 -83 -17 -100 -20 -16 -2 -55 -11 -85 -18 -30 -7
-68 -16 -85 -19 -16 -3 -66 -14 -110 -25 -44 -10 -127 -30 -185 -44 -58 -14
-157 -39 -220 -56 -63 -18 -122 -33 -131 -35 -15 -4 -100 -28 -219 -62 -308
-89 -1059 -345 -1185 -404 -11 -5 -72 -30 -135 -55 -63 -26 -133 -55 -155 -64
-22 -10 -78 -34 -125 -54 -47 -19 -130 -56 -185 -82 -55 -25 -140 -65 -190
-88 -103 -47 -450 -223 -570 -287 -423 -228 -939 -554 -1310 -825 -142 -104
-295 -239 -284 -250 3 -2 25 -7 50 -10 536 -67 1181 -358 1704 -768 268 -211
508 -444 735 -713 171 -204 487 -676 658 -986 174 -316 228 -413 245 -448 10
-19 30 -57 45 -85 15 -27 50 -90 76 -140 126 -232 165 -302 258 -465 309 -539
513 -831 767 -1094 l76 -78 -50 6 c-36 5 -82 25 -165 73 -63 37 -206 113 -318
170 -112 57 -257 135 -323 173 -66 39 -122 70 -125 70 -14 0 -103 47 -124 66
-14 12 -86 64 -160 115 -74 50 -189 135 -255 188 -139 111 -245 191 -262 198
-14 6 -121 170 -293 448 -182 295 -203 328 -509 755 -230 322 -552 729 -756
956 -423 472 -795 824 -1210 1144 -145 112 -138 107 -385 273 -472 317 -977
573 -1480 752 -74 26 -144 51 -155 55 -144 59 -677 199 -890 236 -32 5 -78 14
-100 19 -11 2 -42 7 -70 10 -27 4 -57 8 -65 10 -8 3 -37 7 -65 10 -27 3 -61 8
-75 10 -14 3 -52 7 -85 10 -33 3 -76 7 -95 10 -140 17 -449 22 -613 10 -97 -7
-270 -29 -307 -40 -8 -2 -31 -7 -50 -10 -68 -11 -223 -55 -298 -85 -299 -119
-535 -354 -627 -625 -87 -256 -92 -611 -14 -955 6 -25 13 -54 15 -65 11 -58
82 -267 130 -390 325 -815 980 -1592 1830 -2168 60 -41 123 -82 140 -91 16 -9
43 -25 59 -35 260 -160 591 -306 868 -382 147 -40 163 -42 193 -16 36 31 44
97 16 123 l-21 19 33 65 c141 277 375 544 606 692 89 57 115 72 120 74 3 0 39
17 81 36 74 36 212 82 279 93 19 4 58 11 85 15 49 9 318 6 405 -5 99 -12 121
-15 216 -30 136 -22 153 -25 204 -36 25 -6 59 -13 75 -16 23 -3 208 -48 320
-77 6 -2 24 -6 40 -10 105 -27 1294 -415 1333 -436 14 -7 -1 -19 -60 -49 -82
-42 -95 -89 -96 -331 0 -133 4 -191 23 -335 6 -48 70 -373 80 -405 2 -8 11
-37 18 -65 45 -159 186 -431 232 -449 50 -19 88 3 139 79 20 30 50 62 68 71
122 63 258 70 369 18 127 -60 247 -219 313 -416 34 -101 37 -118 43 -243 6
-133 -9 -209 -67 -333 -102 -217 -275 -369 -531 -465 -104 -39 -179 -87 -179
-115 0 -6 13 -38 30 -73 16 -34 41 -115 56 -178 55 -245 75 -319 105 -391 18
-41 35 -84 39 -95 28 -70 139 -289 176 -345 102 -155 243 -276 380 -326 41
-15 73 -32 71 -38 -2 -6 14 -22 35 -35 36 -21 39 -26 34 -55 -23 -124 -24
-410 -2 -534 2 -9 7 -39 10 -65 4 -27 9 -59 12 -70 2 -12 9 -49 15 -82 9 -54
21 -106 75 -350 51 -224 130 -419 212 -520 45 -56 136 -138 163 -147 16 -5
-25 -105 -121 -298 -104 -209 -291 -509 -407 -655 -4 -6 -28 -37 -53 -70 -24
-33 -54 -71 -66 -85 -12 -14 -65 -77 -119 -140 -130 -151 -153 -176 -331 -354
-179 -179 -214 -212 -359 -337 -419 -361 -797 -618 -1241 -845 l-201 -103 -47
40 c-146 120 -262 263 -378 464 -47 81 -165 332 -203 430 -40 105 -120 347
-131 397 -3 13 -7 34 -10 47 -3 14 -7 28 -10 32 -2 4 -9 29 -14 56 -5 26 -16
79 -25 117 -20 96 -44 255 -52 362 -13 166 -6 525 12 577 5 14 13 78 22 162 4
51 2 63 -13 77 -37 32 -114 41 -209 24 -32 -6 -48 -8 -200 -31 -165 -24 -176
-26 -275 -41 -52 -8 -115 -17 -140 -20 -25 -3 -52 -7 -60 -9 -8 -2 -35 -7 -60
-10 -74 -10 -269 -44 -350 -60 -14 -3 -41 -8 -60 -11 -71 -11 -270 -56 -465
-105 -178 -45 -616 -172 -637 -185 -4 -3 -16 -7 -25 -9 -48 -9 -873 -288 -905
-306 -10 -5 -22 -9 -28 -9 -9 0 -124 -44 -360 -137 -263 -105 -588 -259 -766
-364 -49 -29 -98 -58 -109 -64 -72 -39 -345 -230 -411 -288 -245 -211 -401
-376 -579 -612 -236 -314 -515 -806 -733 -1295 -27 -59 -90 -210 -97 -230 -1
-3 -6 -16 -12 -30 -157 -369 -390 -1126 -549 -1782 -15 -65 -31 -115 -35 -110
-5 4 -60 111 -125 237 -173 343 -361 710 -409 800 -23 44 -77 148 -120 230
-43 83 -99 191 -125 240 -26 50 -68 128 -93 176 -46 87 -100 188 -167 314 -21
39 -61 115 -90 170 -29 55 -63 118 -75 140 -12 22 -41 76 -65 120 -41 77 -66
123 -133 245 -29 54 -57 105 -118 218 -359 659 -559 967 -808 1252 -315 358
-661 558 -1268 734 -221 64 -288 88 -393 141 -70 35 -203 110 -225 127 -5 5
-53 38 -105 74 -52 37 -146 105 -208 151 -184 137 -420 293 -507 334 -100 47
-191 72 -270 73 -50 0 -70 -5 -115 -30 l-54 -31 -85 136 c-47 75 -143 222
-214 326 -71 105 -211 314 -312 465 -163 245 -341 506 -377 552 -7 9 -38 51
-68 93 -83 115 -318 436 -344 470 -91 120 -354 498 -514 738 -105 158 -196
293 -201 300 -6 6 -64 84 -129 172 -199 267 -411 515 -612 715 -181 182 -282
227 -372 165 -43 -29 -62 -76 -60 -155 1 -61 34 -233 62 -325 10 -33 35 -114
55 -180 68 -223 155 -440 252 -630 32 -63 148 -258 377 -633 44 -73 90 -148
101 -166 11 -18 114 -190 229 -382 115 -192 218 -365 231 -384 12 -19 24 -42
28 -50 4 -8 15 -28 25 -45 10 -16 30 -50 44 -75 14 -25 43 -76 65 -115 39 -67
68 -119 121 -215 14 -25 53 -94 87 -155 84 -148 115 -204 252 -455 78 -141
240 -432 338 -605 15 -27 39 -67 52 -87 12 -21 23 -41 23 -45 0 -3 6 -14 14
-22 8 -9 22 -32 33 -51 10 -19 54 -92 98 -163 44 -70 85 -135 90 -145 6 -9 42
-65 81 -123 l72 -107 -32 -6 c-46 -9 -173 -65 -236 -105 -89 -56 -193 -168
-234 -252 -19 -41 -39 -94 -45 -119 -10 -46 -9 -246 3 -311 24 -141 117 -364
266 -639 28 -52 66 -122 84 -155 45 -84 77 -163 146 -370 109 -323 168 -426
378 -654 48 -52 95 -103 106 -115 28 -32 83 -120 91 -146 4 -14 34 -76 66
-140 62 -124 127 -200 254 -295 77 -58 240 -140 330 -165 169 -48 581 -46 869
4 l75 13 52 -101 c68 -133 125 -266 275 -644 158 -395 295 -688 380 -809 85
-120 191 -182 369 -218 97 -20 341 -10 515 20 19 3 49 8 65 11 365 59 648 262
648 464 -1 157 -39 228 -336 625 -102 136 -372 478 -458 579 -116 137 -522
642 -527 656 -2 4 23 1 55 -6 109 -27 200 -13 217 31 11 29 6 80 -9 101 -17
25 -38 34 -180 74 -176 51 -289 114 -399 224 -71 70 -75 75 -222 261 -138 174
-183 235 -266 355 -63 91 -216 329 -231 360 -4 8 -13 24 -20 35 -58 96 -159
283 -287 530 -157 305 -220 404 -354 560 -48 55 -114 140 -149 189 -34 48 -67
94 -73 100 -6 6 -13 16 -15 21 -2 6 -35 62 -73 125 -135 226 -273 541 -313
715 -2 11 -7 67 -10 124 l-6 103 24 -7 c51 -16 229 -113 324 -177 55 -37 163
-115 240 -172 453 -338 642 -437 1060 -551 93 -25 329 -106 340 -116 5 -5 14
-9 21 -9 20 0 204 -89 299 -145 193 -113 339 -239 500 -430 194 -231 412 -560
595 -900 23 -44 49 -87 56 -96 8 -8 14 -21 14 -28 0 -6 11 -28 24 -49 20 -32
143 -256 271 -497 61 -114 116 -216 150 -280 62 -114 103 -190 161 -300 32
-60 68 -128 80 -150 12 -22 35 -65 51 -95 15 -30 44 -84 64 -120 33 -60 75
-139 197 -370 24 -47 64 -121 87 -165 122 -231 202 -382 356 -681 209 -406
216 -418 265 -454 35 -26 37 -37 18 -135 -4 -18 -4 -118 -1 -200 1 -28 -7 -97
-18 -155 -3 -14 -7 -38 -9 -55 -17 -111 -66 -424 -70 -445 -2 -14 -5 -35 -5
-47 -1 -14 -6 -21 -14 -17 -10 3 -18 -20 -31 -88 -10 -51 -20 -102 -22 -113
-2 -11 -9 -47 -15 -80 -6 -33 -26 -139 -45 -235 -19 -96 -37 -187 -39 -202 -3
-15 -14 -72 -24 -125 -18 -93 -40 -210 -46 -243 -1 -11 26 -22 114 -42 64 -15
127 -29 141 -31 66 -12 245 -64 337 -98 98 -37 131 -43 288 -53 33 -2 103 -15
155 -30 91 -24 251 -58 335 -71 22 -3 51 -8 65 -10 14 -2 70 -11 124 -20 55
-9 103 -18 107 -21 4 -2 10 -17 14 -32 5 -27 7 -27 68 -23 102 7 369 7 407 -1
19 -4 65 -14 101 -22 36 -9 93 -18 125 -21 32 -3 70 -8 84 -10 14 -2 52 -7 85
-11 33 -4 67 -8 75 -9 35 -5 99 -18 145 -31 28 -7 77 -16 110 -20 33 -3 67 -8
77 -9 24 -5 134 -19 223 -30 28 -3 64 -8 80 -10 17 -3 53 -7 80 -10 28 -3 104
-12 170 -21 66 -8 138 -17 160 -19 22 -3 56 -7 75 -10 19 -3 53 -7 75 -10 359
-44 338 -41 432 -65 127 -34 130 -36 127 -75 -2 -22 1 -35 9 -36 43 -4 225 -8
587 -13 228 -3 438 -8 465 -10 210 -19 1196 -28 1212 -12 4 4 8 93 10 198 3
214 11 332 29 428 1 8 3 19 3 23 1 5 5 6 10 3 12 -8 73 19 93 41 33 36 44 82
53 216 11 168 62 277 190 402 249 245 759 456 1260 521 28 3 58 8 67 10 132
25 690 24 878 -1 19 -3 60 -7 90 -9 87 -7 181 -17 235 -25 92 -13 325 -5 395
13 207 54 324 169 346 341 1 11 5 34 7 50 3 17 8 52 12 80 3 27 8 51 10 53 7
7 104 -49 188 -108 94 -68 204 -175 270 -264 23 -30 82 -126 131 -213 182
-319 323 -498 501 -633 33 -25 62 -48 63 -52 2 -5 7 -8 11 -8 5 0 41 -22 82
-48 208 -136 505 -253 864 -342 152 -37 348 -83 408 -95 15 -3 39 -7 55 -11
491 -99 548 -110 687 -135 61 -10 117 -21 125 -24 8 -2 33 -7 55 -10 23 -3 52
-8 65 -10 14 -3 63 -12 110 -20 47 -8 96 -16 110 -19 14 -3 43 -7 65 -11 22
-3 94 -14 160 -25 66 -10 143 -22 170 -26 28 -3 57 -7 65 -9 24 -4 92 -14 140
-20 25 -4 56 -8 70 -10 14 -2 48 -6 75 -9 28 -4 61 -8 75 -11 14 -2 52 -7 85
-10 33 -3 71 -7 85 -10 14 -2 52 -7 85 -10 33 -4 74 -8 90 -10 17 -2 57 -7 90
-10 33 -3 76 -8 95 -10 19 -2 67 -6 105 -9 39 -4 94 -8 123 -11 28 -3 76 -7
105 -10 28 -2 95 -7 147 -10 52 -4 119 -8 147 -10 337 -26 1151 -27 1513 -1
111 8 236 18 250 21 8 2 49 6 90 10 41 4 82 8 90 10 21 4 88 14 135 20 23 3
52 7 65 10 14 3 50 9 80 15 30 6 66 12 80 15 14 3 41 8 60 11 70 12 308 76
430 115 146 48 358 148 448 211 88 62 188 162 233 231 58 90 83 181 83 312 1
135 -8 202 -40 281 -13 33 -24 65 -24 71 0 17 -65 70 -102 82 -23 7 -37 21
-47 43 -7 18 -20 47 -27 63 -7 17 -24 57 -38 90 -13 33 -54 123 -91 200 -72
151 -173 381 -211 483 -38 99 -62 212 -45 212 6 0 21 12 35 27 20 21 24 35 22
72 -3 38 -15 64 -70 146 -37 54 -73 111 -80 125 -7 14 -29 52 -48 85 -51 89
-228 454 -228 470 0 2 -11 28 -24 57 -21 49 -75 185 -159 403 -56 144 -203
613 -258 820 -11 44 -24 94 -29 110 -309 1152 -591 1707 -1155 2270 -286 286
-534 477 -905 699 -157 94 -533 286 -695 355 -55 24 -113 49 -130 56 -16 7
-84 34 -150 60 -66 26 -129 51 -140 55 -63 27 -456 161 -605 206 -281 86 -649
185 -895 243 -228 53 -278 64 -390 87 -66 14 -127 27 -135 29 -12 3 -275 54
-360 71 -14 2 -36 7 -50 9 -37 7 -181 34 -215 40 -16 3 -41 7 -55 10 -14 2
-52 9 -85 14 -33 5 -125 21 -205 35 -80 13 -165 27 -190 31 -25 3 -52 8 -60
10 -8 2 -35 6 -60 9 -25 3 -56 8 -70 11 -123 25 -225 23 -263 -6 -16 -12 -32
-17 -36 -12 -3 5 -27 36 -52 69 -25 32 -54 73 -63 89 -9 17 -21 37 -26 45 -37
56 -95 223 -126 365 -18 78 -26 113 -49 210 -14 60 -27 119 -29 130 -4 18 -11
57 -22 120 -24 129 -33 300 -25 451 1 13 15 27 46 42 58 28 73 54 80 132 3 36
7 90 10 120 3 30 7 89 10 130 5 78 15 181 21 214 2 11 6 42 9 70 3 28 7 62 10
76 3 14 7 41 10 60 4 19 11 55 16 80 6 25 12 54 15 65 2 11 35 127 74 259 69
234 102 361 114 441 14 94 20 113 46 160 15 28 47 86 70 130 59 109 104 193
133 244 l25 43 35 -54 c19 -29 63 -98 97 -153 141 -225 520 -782 577 -850 5
-5 20 -26 33 -45 61 -85 302 -388 423 -529 201 -237 591 -624 768 -763 30 -23
56 -45 59 -49 13 -16 246 -184 330 -238 52 -33 100 -65 107 -71 7 -5 15 -10
18 -10 3 0 23 -11 46 -25 58 -37 323 -168 404 -200 150 -59 347 -121 445 -138
14 -3 52 -10 85 -16 111 -20 130 -22 305 -26 96 -2 207 1 245 6 350 48 618
229 695 470 34 107 40 250 16 375 -34 176 -180 454 -364 694 -141 183 -486
549 -722 766 -247 227 -639 539 -970 774 -96 67 -429 285 -530 346 -100 60
-121 69 -166 71 -113 3 -286 90 -380 191 l-41 44 13 68 c7 37 15 97 18 132 10
120 17 183 27 233 5 28 11 60 14 73 2 13 7 32 10 42 3 10 8 27 10 37 27 133
170 574 254 785 103 259 282 639 403 858 71 128 157 275 250 425 55 88 105
169 111 180 7 11 14 22 17 25 3 3 41 59 85 125 105 158 409 580 435 605 3 3
59 73 124 155 149 186 304 368 511 594 161 177 482 498 696 696 379 349 930
788 1225 975 149 95 528 348 724 485 114 79 204 138 292 190 10 5 59 35 110
66 85 52 199 118 353 207 33 19 94 52 135 74 41 23 90 50 110 61 96 54 372
187 420 202 103 33 154 66 191 121 15 24 16 30 3 49 -21 33 -94 82 -155 104
-114 42 -359 92 -704 145 -218 33 -259 39 -365 51 -25 3 -61 8 -80 10 -19 3
-56 7 -83 10 -26 3 -60 7 -75 9 -15 3 -56 7 -92 11 -36 3 -81 8 -100 10 -94
11 -140 16 -195 20 -33 3 -78 7 -100 10 -22 3 -71 7 -110 10 -38 3 -92 7 -120
10 -46 4 -160 12 -275 20 -64 4 -301 17 -390 21 -221 9 -948 22 -953 17z
m-20902 -13841 c22 -6 51 -13 65 -15 69 -12 231 -75 370 -144 139 -69 163 -85
231 -153 42 -41 103 -115 136 -165 60 -90 90 -144 243 -440 100 -192 142 -270
188 -350 41 -70 64 -111 93 -162 61 -108 235 -367 357 -533 88 -119 237 -307
256 -325 25 -23 155 -193 172 -225 43 -84 14 -208 -71 -294 -125 -127 -406
-252 -650 -291 -218 -33 -545 -37 -680 -8 -16 4 -32 7 -35 8 -98 19 -267 120
-362 217 -55 56 -78 95 -171 299 -28 61 -93 152 -153 215 -248 258 -293 332
-408 671 -94 277 -103 298 -264 587 -194 349 -265 607 -212 766 57 171 213
279 485 336 88 18 135 22 240 20 72 -2 148 -8 170 -14z m11270 -3887 c297 -3
808 -8 1135 -11 327 -3 777 -7 1000 -9 841 -8 1555 -16 1557 -19 7 -6 -181
-140 -229 -163 l-53 -26 -790 2 c-1188 3 -4088 12 -4187 13 l-87 1 62 76 c34
42 77 93 96 113 l34 37 461 -4 c253 -2 704 -7 1001 -10z"/>
<path d="M6828 26825 c-1 -1 -41 -6 -88 -9 -47 -4 -96 -9 -110 -11 -14 -2 -43
-7 -65 -9 -63 -8 -119 -16 -140 -20 -11 -2 -60 -11 -110 -21 -49 -9 -126 -25
-170 -37 -44 -11 -88 -22 -98 -24 -68 -13 -321 -97 -464 -153 -512 -202 -965
-497 -1358 -883 -319 -314 -543 -619 -744 -1013 -155 -304 -282 -686 -341
-1025 -6 -36 -13 -76 -15 -90 -3 -14 -7 -50 -10 -80 -4 -30 -8 -66 -10 -80
-18 -105 -25 -447 -12 -630 10 -144 13 -169 43 -380 6 -38 47 -244 58 -290
112 -448 282 -851 527 -1246 190 -308 378 -544 648 -815 314 -314 573 -519
921 -727 544 -325 1240 -578 1840 -667 14 -2 72 -11 130 -20 58 -9 116 -18
130 -20 23 -3 83 -10 170 -20 36 -4 114 -11 218 -20 185 -15 329 -19 692 -19
436 0 666 8 1100 39 41 3 105 8 142 10 37 3 89 7 115 9 27 3 86 8 133 11 47 4
101 8 120 10 19 2 73 6 120 10 47 4 101 8 120 10 19 2 73 7 120 10 47 3 101 8
120 10 19 2 75 7 124 11 48 3 98 7 110 10 11 2 52 6 91 10 87 7 310 46 390 68
103 29 135 71 110 145 -27 81 -130 146 -310 196 -108 29 -270 98 -431 181
-174 90 -306 181 -415 285 -74 72 -105 115 -134 188 -20 53 -23 75 -21 169 4
141 33 237 222 709 79 199 144 365 144 369 0 3 6 20 14 37 16 37 70 189 120
337 60 179 163 554 190 690 2 14 14 70 25 125 31 156 52 295 66 425 3 36 8 76
10 90 25 168 25 764 0 910 -2 14 -7 54 -10 90 -4 36 -8 72 -10 80 -2 8 -7 33
-10 55 -3 23 -8 52 -10 65 -3 14 -8 39 -11 55 -22 124 -102 425 -131 495 -3 8
-7 20 -8 25 -4 17 -65 167 -85 212 -11 24 -20 45 -20 48 0 7 -100 206 -130
260 -118 211 -240 385 -395 565 -603 701 -1493 1157 -2465 1265 -30 3 -73 8
-95 11 -44 6 -651 15 -657 9z m457 -189 c104 -4 192 -9 195 -11 3 -2 41 -6 85
-10 44 -4 82 -9 85 -10 3 -2 33 -7 65 -10 33 -4 63 -9 66 -11 4 -2 24 -6 45
-10 32 -5 109 -20 194 -39 146 -32 454 -133 600 -197 281 -123 478 -234 705
-397 479 -343 875 -836 1090 -1356 20 -49 41 -99 46 -110 33 -73 124 -373 143
-471 2 -11 11 -53 20 -94 16 -78 18 -90 35 -205 28 -190 36 -312 36 -565 0
-192 -9 -394 -20 -461 -2 -13 -6 -46 -9 -74 -7 -59 -16 -122 -21 -150 -2 -11
-7 -45 -11 -75 -4 -30 -9 -57 -9 -60 -2 -8 -15 -73 -19 -100 -14 -84 -77 -349
-108 -454 -11 -38 -21 -76 -23 -85 -8 -36 -88 -285 -134 -416 -68 -195 -92
-259 -231 -605 -141 -350 -180 -465 -213 -617 -59 -280 15 -484 248 -686 144
-125 401 -281 605 -366 30 -13 73 -31 95 -41 52 -22 112 -47 149 -60 16 -6 27
-13 24 -15 -10 -10 -148 -34 -228 -40 -188 -13 -217 -15 -265 -20 -27 -3 -86
-7 -130 -10 -44 -2 -111 -7 -150 -10 -38 -3 -97 -7 -130 -10 -144 -10 -223
-16 -270 -20 -27 -3 -93 -7 -145 -11 -52 -3 -117 -7 -145 -9 -27 -2 -102 -7
-165 -10 -63 -4 -133 -8 -155 -10 -201 -19 -1017 -27 -1260 -12 -209 12 -448
34 -565 52 -14 2 -45 7 -70 10 -43 6 -203 32 -245 40 -11 2 -45 9 -75 15 -30
6 -66 13 -80 15 -37 7 -55 11 -155 35 -49 12 -97 23 -105 25 -54 12 -285 84
-404 127 -556 199 -1032 468 -1473 833 -122 101 -398 371 -495 485 -186 219
-365 466 -477 662 -10 18 -37 65 -59 103 -34 60 -103 200 -172 350 -112 242
-229 634 -275 925 -3 19 -7 42 -10 50 -2 8 -7 46 -10 85 -4 38 -8 72 -10 75
-5 9 -18 281 -18 390 0 112 11 345 18 370 2 8 6 40 10 71 3 31 8 67 10 80 3
13 7 41 10 64 4 22 10 56 15 75 5 19 11 51 14 70 17 111 121 438 192 607 110
259 274 551 404 723 165 217 223 284 390 450 157 157 203 198 346 310 480 375
1045 633 1654 754 170 33 197 38 325 52 33 3 68 8 78 10 10 2 89 6 175 10 86
3 159 8 161 10 2 2 7 2 10 0 3 -2 91 -7 196 -10z"/>
<path d="M5555 23491 c-102 -26 -172 -96 -193 -195 -27 -128 32 -244 154 -297
116 -52 267 4 330 122 28 51 26 180 -3 235 -54 101 -182 161 -288 135z"/>
<path d="M6970 23450 c-49 -14 -107 -49 -138 -84 -76 -86 -77 -251 -2 -339 21
-25 103 -77 131 -83 120 -28 245 30 301 140 28 54 29 165 4 219 -51 105 -193
176 -296 147z"/>
<path d="M8300 23382 c-111 -32 -182 -143 -174 -270 5 -66 31 -118 84 -166 54
-48 101 -68 163 -68 111 1 218 71 249 161 18 54 15 170 -5 207 -64 120 -187
173 -317 136z"/>
<path d="M15054 22159 c-33 -21 -44 -58 -32 -109 10 -45 11 -180 3 -245 -17
-124 -90 -296 -159 -374 -100 -113 -180 -166 -343 -225 -70 -26 -145 -58 -166
-72 -78 -51 -126 -157 -113 -249 8 -53 38 -98 136 -205 156 -173 213 -258 254
-380 23 -67 28 -126 29 -341 2 -218 2 -217 93 -346 88 -124 110 -196 89 -293
-19 -90 -28 -444 -13 -540 16 -110 55 -236 91 -299 74 -129 241 -274 412 -359
97 -48 260 -96 365 -107 30 -3 66 -8 80 -10 14 -2 50 -6 80 -10 30 -4 66 -8
80 -10 14 -2 51 -7 83 -10 32 -4 67 -8 78 -10 11 -2 50 -7 87 -10 37 -4 89
-11 115 -16 26 -5 51 -8 55 -7 4 1 39 -3 77 -10 71 -12 101 -16 189 -28 45 -6
51 -11 92 -66 122 -166 196 -369 229 -628 19 -149 27 -604 12 -685 -4 -22 -10
-52 -12 -67 -3 -15 -28 -98 -56 -184 -42 -131 -49 -161 -40 -181 13 -29 65
-53 101 -46 54 9 76 36 121 148 16 39 47 151 54 195 4 25 9 54 11 65 23 111
22 521 -1 700 -2 17 -7 53 -10 80 -3 28 -8 57 -10 65 -2 8 -6 33 -10 55 -11
77 -58 241 -92 319 -46 108 -69 149 -129 231 -87 117 -145 171 -191 179 -85
15 -189 31 -263 41 -25 3 -56 8 -70 10 -28 4 -95 12 -167 20 -27 3 -64 8 -83
10 -19 3 -55 8 -80 10 -55 6 -82 10 -235 30 -168 22 -349 73 -396 112 -8 7
-20 13 -25 13 -22 0 -125 78 -195 149 -61 62 -81 90 -107 152 -50 120 -66 235
-58 419 3 85 8 169 11 185 2 17 7 64 11 105 16 161 6 199 -87 337 -98 147
-102 159 -101 366 1 193 -11 287 -50 382 -24 56 -104 197 -128 223 -8 9 -27
33 -41 52 -15 19 -65 76 -112 125 -48 50 -86 97 -87 107 0 34 69 77 190 118
244 82 434 276 535 544 14 36 25 69 25 74 -1 4 4 29 11 55 30 128 6 399 -40
441 -26 24 -65 26 -97 5z"/>
<path d="M12418 7173 c-8 -10 -29 -48 -46 -85 -86 -189 -389 -385 -691 -448
-96 -20 -122 -55 -78 -104 17 -20 51 -33 162 -60 318 -79 464 -149 580 -275
134 -147 130 -144 157 -138 14 4 35 21 46 39 58 91 211 215 350 283 64 32 219
90 265 100 12 2 60 13 107 24 47 10 103 21 125 25 84 13 80 10 76 47 -6 58
-27 87 -69 95 -63 11 -257 72 -319 100 -156 70 -226 108 -312 166 -64 44 -176
136 -238 197 -56 54 -89 64 -115 34z"/>
<path d="M17894 7120 c-64 -28 -77 -50 -71 -113 4 -29 21 -98 40 -152 31 -92
58 -198 72 -285 3 -19 8 -141 10 -270 3 -129 7 -248 10 -265 21 -136 25 -437
8 -531 -16 -91 -20 -217 -10 -391 6 -113 5 -122 -12 -128 -10 -3 -21 -14 -24
-24 -6 -25 -1 -330 6 -361 4 -14 9 -47 12 -74 3 -27 9 -54 12 -60 4 -5 7 -71
8 -145 2 -75 6 -158 10 -186 11 -69 11 -67 -4 -185 -18 -135 -18 -139 -20
-177 -1 -21 -6 -33 -15 -33 -11 0 -14 -16 -15 -67 0 -94 -12 -266 -19 -277 -3
-5 -6 -114 -8 -242 -2 -207 -5 -241 -25 -306 -27 -87 -28 -110 -13 -164 26
-90 67 -139 124 -149 19 -4 82 -7 140 -7 167 -1 260 40 330 145 63 93 72 146
43 251 -17 61 -21 204 -14 496 3 117 -3 187 -20 250 -19 67 -24 126 -24 265 0
128 9 280 19 330 13 68 17 244 6 285 -7 25 -14 54 -17 65 -10 39 -14 328 -15
1090 0 424 3 790 7 814 14 91 58 220 111 325 61 121 61 117 -13 167 -54 38
-150 73 -233 87 -256 42 -341 47 -396 22z"/>
<path d="M27370 7119 c-30 -3 -71 -13 -90 -21 -42 -18 -99 -74 -106 -105 -11
-42 4 -234 31 -403 13 -88 18 -137 20 -233 1 -60 -2 -130 -6 -155 -4 -26 -10
-85 -13 -132 -4 -47 -9 -94 -11 -105 -3 -11 -7 -36 -10 -55 -24 -169 -85 -318
-158 -389 -162 -158 -211 -207 -277 -277 -55 -57 -100 -92 -160 -127 -47 -26
-116 -66 -155 -90 -38 -24 -92 -51 -120 -61 -82 -30 -124 -82 -141 -170 l-7
-39 70 6 c171 15 279 68 663 323 170 112 213 151 232 206 10 29 29 47 92 88
77 50 233 170 290 223 16 15 32 27 35 28 71 10 103 0 296 -87 17 -7 100 -34
185 -59 232 -69 294 -103 467 -250 6 -5 43 -35 81 -65 38 -30 96 -90 128 -134
70 -93 182 -204 279 -278 l70 -53 105 1 c102 0 108 2 185 40 119 58 129 81
126 299 l-1 81 -67 70 c-94 99 -147 131 -346 209 -94 37 -181 71 -192 76 -43
18 -158 49 -236 64 -92 17 -165 39 -289 85 -173 65 -240 81 -375 89 -97 7
-158 17 -239 40 -60 17 -120 31 -133 31 -23 0 -24 2 -18 53 3 28 8 59 10 67 2
8 7 33 10 55 3 23 8 52 10 65 3 14 8 45 11 70 3 25 7 52 9 60 3 8 7 33 10 55
4 22 8 47 10 55 2 8 7 35 10 60 4 25 10 63 15 85 5 22 11 56 15 75 19 122 41
195 67 231 22 30 90 83 176 135 13 8 -31 87 -68 124 -73 74 -181 113 -369 134
-29 4 -56 8 -60 9 -3 2 -31 0 -61 -4z"/>
<path d="M6250 7084 c-36 -6 -82 -20 -102 -29 l-37 -18 2 -91 c1 -94 -11 -216
-28 -263 -2 -6 -7 -38 -11 -70 -3 -32 -14 -69 -24 -83 -29 -41 -57 -103 -64
-140 -3 -19 -9 -46 -12 -60 -3 -14 -10 -45 -15 -68 -5 -24 -24 -78 -43 -120
-53 -118 -63 -145 -126 -317 -79 -218 -96 -255 -117 -256 -10 0 -29 -3 -43 -7
-36 -8 -725 -8 -910 1 -345 17 -396 19 -544 21 -163 4 -227 -3 -288 -30 l-36
-16 3 -85 c1 -46 5 -86 8 -89 3 -3 34 -12 69 -19 47 -10 120 -13 283 -9 359 7
1349 14 1363 9 8 -3 2 -21 -21 -57 -19 -29 -58 -111 -86 -183 -54 -133 -90
-205 -121 -240 -23 -25 -115 -178 -165 -272 -21 -40 -59 -98 -85 -130 -108
-136 -296 -410 -358 -523 -79 -145 -78 -202 7 -244 134 -68 302 -79 442 -29
42 14 51 24 87 87 23 39 72 116 109 170 57 83 75 101 108 113 63 22 141 21
255 -6 25 -5 56 -12 70 -14 38 -7 183 -45 300 -79 162 -46 318 -85 410 -102
46 -9 85 -17 86 -19 7 -6 -108 -133 -128 -142 -13 -5 -60 -35 -103 -66 -99
-70 -194 -126 -355 -208 -69 -36 -143 -75 -165 -88 -160 -92 -223 -122 -275
-128 -30 -4 -95 -22 -145 -40 -346 -129 -721 -232 -935 -259 -19 -2 -93 -14
-165 -25 -71 -11 -152 -23 -180 -26 -27 -4 -60 -8 -71 -10 -12 -2 -48 -7 -80
-11 -76 -9 -74 -8 -106 -24 -34 -16 -58 -74 -58 -139 l0 -48 58 -11 c74 -14
247 -8 339 12 40 9 87 18 105 21 18 3 58 10 88 15 30 5 89 12 130 15 41 3 86
7 100 9 14 3 43 7 65 11 22 3 47 7 55 10 8 2 33 6 54 10 105 15 333 72 861
216 418 114 505 145 730 261 171 88 372 215 500 316 6 5 48 34 94 67 97 68
110 70 226 31 175 -60 323 -143 620 -351 105 -73 226 -156 270 -185 67 -44
218 -160 235 -180 5 -6 115 -96 150 -123 158 -123 282 -143 433 -71 51 23 60
33 87 88 26 52 43 138 42 216 0 104 -1 107 -49 161 -167 186 -308 292 -458
344 -27 10 -74 28 -103 41 -29 14 -88 38 -130 55 -42 18 -90 37 -107 44 -157
64 -715 229 -729 215 -16 -16 -25 -12 -52 30 -26 39 -26 40 -9 82 21 54 88
172 175 308 91 143 170 282 204 360 15 36 65 139 110 230 66 133 87 185 105
270 35 155 64 202 150 245 68 35 155 42 267 22 49 -9 112 -20 139 -23 62 -9
732 -8 789 0 53 8 171 52 169 63 0 4 -4 26 -7 48 -11 69 -27 119 -52 161 -25
44 -61 66 -164 99 -31 10 -69 32 -88 50 -43 43 -129 88 -277 146 l-120 47 -80
-77 c-44 -43 -116 -108 -160 -146 -44 -38 -112 -100 -151 -138 l-71 -68 -64 0
c-87 1 -112 6 -310 72 -68 23 -130 42 -136 43 -7 1 -24 12 -38 25 -52 45 -96
61 -158 56 -32 -2 -69 -11 -83 -19 -28 -19 -67 -77 -90 -137 -15 -36 -19 -40
-43 -34 -14 4 -46 9 -71 11 -25 3 -67 8 -95 13 -58 8 -316 7 -495 -3 -130 -7
-440 -9 -475 -3 -18 4 -31 33 -30 67 1 8 12 35 25 60 13 25 45 112 71 193 27
83 62 174 82 205 42 69 94 178 138 292 l32 85 76 37 c116 56 207 129 294 237
23 29 22 32 -20 72 -71 67 -157 114 -343 189 -181 73 -299 95 -410 74z m860
-1708 c157 -5 392 -35 409 -51 2 -2 -15 -48 -37 -102 -23 -54 -66 -163 -97
-243 -31 -80 -83 -197 -115 -260 -32 -63 -83 -173 -114 -245 -30 -71 -83 -191
-118 -265 -36 -74 -68 -143 -71 -152 -4 -11 -17 -18 -34 -19 -15 0 -47 -3 -70
-5 -34 -3 -105 8 -193 30 -8 2 -49 11 -91 20 -42 9 -83 18 -90 20 -8 3 -31 8
-53 11 -21 3 -41 7 -45 9 -5 3 -52 11 -136 22 -16 2 -37 6 -45 9 -13 4 -108
16 -235 30 -22 3 -81 7 -131 9 -105 6 -164 26 -198 67 -53 63 -47 85 83 277
72 107 91 145 171 344 55 136 73 169 136 249 40 51 92 127 116 168 l42 76 270
0 c149 0 314 2 366 5 52 3 100 4 105 3 6 -1 84 -4 175 -7z"/>
<path d="M21512 7050 c-50 -11 -105 -53 -163 -123 -30 -36 -65 -71 -79 -78
-14 -8 -27 -16 -30 -19 -7 -7 -98 -39 -130 -45 -117 -25 -98 -25 -345 -9 -233
14 -524 8 -738 -15 -38 -4 -96 -4 -130 0 -141 17 -244 20 -638 21 l-414 1 -42
-25 c-42 -24 -42 -24 -27 -54 40 -76 108 -119 171 -107 21 4 67 7 103 6 36 -1
103 -2 150 -2 47 -1 99 2 115 6 49 13 111 4 193 -30 45 -18 58 -30 86 -77 30
-49 33 -61 29 -115 l-4 -60 108 -110 c130 -133 188 -201 238 -280 21 -32 105
-128 187 -212 125 -129 147 -156 139 -172 -36 -66 -222 -196 -441 -307 -109
-55 -237 -132 -292 -176 -27 -21 -63 -36 -116 -48 -93 -21 -174 -49 -307 -105
-104 -44 -145 -57 -330 -101 -60 -14 -138 -35 -172 -46 l-63 -21 -1 -41 c-1
-23 -3 -55 -5 -72 -3 -31 -2 -32 39 -38 55 -8 180 -9 232 -1 56 9 124 31 194
65 33 16 127 52 208 81 81 28 161 58 177 66 17 9 58 21 93 29 65 13 300 96
513 181 71 28 151 78 201 126 56 52 219 120 368 152 11 3 30 7 41 10 51 11
216 -59 407 -173 137 -81 221 -120 368 -172 148 -52 160 -57 231 -102 143 -91
226 -120 403 -142 24 -3 93 -22 154 -42 120 -38 187 -43 262 -17 50 17 76 40
148 130 l57 72 175 56 c137 44 179 61 191 80 34 51 29 128 -11 171 -22 24 -29
26 -67 19 -77 -12 -92 -15 -158 -24 -62 -9 -318 -7 -370 3 -22 4 -47 8 -145
21 -109 15 -438 94 -670 161 -217 63 -361 118 -456 174 l-67 40 4 44 c3 25 11
60 19 79 22 54 100 133 192 193 116 78 177 136 313 299 193 230 221 252 432
334 120 47 175 83 218 142 l30 42 -33 36 c-86 98 -172 152 -383 245 -152 67
-281 94 -362 76z m-1657 -427 c92 -11 1052 -10 1130 0 104 15 245 6 283 -18
11 -8 -107 -210 -149 -255 -8 -9 -34 -40 -58 -70 -39 -48 -74 -87 -143 -161
-9 -10 -47 -57 -84 -106 -89 -116 -151 -190 -193 -228 l-33 -31 -112 56 c-62
30 -135 66 -163 78 -49 23 -150 116 -220 202 -60 75 -90 108 -163 180 -99 99
-111 117 -153 230 -52 142 -52 143 -30 137 10 -3 50 -9 88 -14z"/>
<path d="M25208 6903 c-31 -21 -75 -54 -98 -73 -73 -60 -151 -109 -190 -120
-47 -13 -68 -13 -160 -6 -87 8 -775 9 -805 2 -11 -2 -23 -5 -27 -5 -4 -1 -14
-8 -22 -17 -29 -29 -2 -105 51 -139 20 -14 37 -16 82 -9 31 4 250 8 486 9 409
2 436 3 545 26 94 19 138 22 240 19 242 -7 333 -4 375 12 36 14 40 19 37 47
-9 118 -169 245 -346 275 -111 19 -108 20 -168 -21z"/>
<path d="M15327 6924 c-1 -1 -40 -5 -87 -8 -323 -24 -606 -104 -905 -256 -315
-159 -577 -375 -780 -645 -140 -186 -235 -337 -395 -630 -263 -482 -410 -729
-525 -884 -46 -63 -89 -119 -94 -124 -7 -7 -34 13 -82 59 -39 38 -77 74 -83
79 -52 45 -139 117 -176 145 -25 19 -47 37 -50 40 -3 3 -52 44 -110 92 -106
87 -182 161 -215 211 -28 43 -16 144 41 344 42 148 74 210 197 383 34 47 64
87 67 90 3 3 24 33 48 67 l42 62 -43 30 c-127 87 -362 149 -559 147 l-63 -1
-22 -80 c-12 -44 -44 -157 -71 -252 -53 -181 -87 -329 -97 -428 -9 -86 -32
-197 -61 -295 -32 -110 -95 -294 -103 -300 -4 -3 -33 -68 -65 -145 -48 -114
-138 -296 -283 -577 -8 -15 -20 -31 -27 -35 -19 -11 -259 -372 -314 -473 -82
-149 -81 -146 -78 -282 4 -136 7 -159 38 -232 80 -190 285 -329 553 -375 146
-25 555 -33 1725 -35 865 -1 1175 4 1198 18 4 2 30 7 57 10 74 10 107 22 260
101 380 195 575 287 666 315 l36 11 -44 107 c-152 365 -292 815 -308 992 -4
36 -8 83 -11 105 -2 22 -6 81 -9 130 -6 90 -6 90 29 145 55 86 87 130 95 130
10 0 173 -166 212 -215 48 -62 154 -215 188 -274 32 -53 36 -71 46 -174 9
-107 16 -152 27 -192 6 -22 12 -45 14 -51 7 -37 61 -125 98 -160 82 -77 189
-105 306 -80 61 14 151 69 198 121 127 143 113 341 -40 555 -50 71 -198 230
-213 230 -6 0 -22 12 -36 26 -37 40 -170 124 -309 196 -239 125 -321 185 -392
286 -27 39 -29 48 -24 95 7 54 13 94 21 137 3 14 8 39 11 55 28 157 80 309
114 335 18 14 133 167 150 201 32 62 27 87 -31 141 -28 26 -57 48 -64 48 -7 0
-18 7 -25 15 -21 26 179 285 356 460 122 120 301 266 392 320 40 24 42 52 6
94 -28 34 -90 56 -188 67 -52 5 -205 11 -209 8z m-3569 -2251 c113 -89 228
-256 271 -391 32 -102 32 -105 38 -247 l5 -130 -141 -105 c-77 -58 -140 -108
-141 -111 0 -5 98 -60 302 -169 95 -51 339 -202 498 -308 162 -109 446 -313
460 -332 3 -3 23 -19 45 -36 129 -95 137 -110 35 -58 -52 26 -124 64 -160 85
-36 20 -83 47 -105 59 -22 12 -121 71 -220 132 -213 129 -187 113 -305 186
-248 154 -533 306 -715 382 -55 23 -109 45 -120 50 -35 16 -238 77 -312 95
-40 9 -73 20 -73 24 0 6 85 124 246 343 90 123 200 296 236 373 10 22 23 47
28 55 5 8 22 43 36 78 15 34 32 62 37 62 5 0 30 -17 55 -37z"/>
<path d="M28663 6673 c-16 -13 -111 -107 -213 -207 -102 -100 -207 -200 -235
-223 -49 -40 -229 -181 -277 -215 -120 -88 -161 -132 -170 -182 -8 -51 121
-34 242 31 47 25 101 54 120 64 31 16 161 53 230 65 14 3 34 8 45 11 24 8 33
10 65 17 14 3 57 15 95 26 39 12 81 23 95 26 14 3 48 11 75 19 132 37 329 66
461 67 127 1 187 39 188 122 1 36 -2 41 -38 60 -21 12 -95 64 -165 117 -233
176 -301 210 -448 223 -34 3 -48 -1 -70 -21z"/>
<path d="M25710 6404 c-8 -2 -31 -5 -50 -8 -22 -4 -81 -39 -155 -91 -66 -47
-154 -99 -195 -117 -83 -34 -132 -38 -310 -24 -52 5 -311 10 -575 11 -264 2
-498 6 -520 8 -22 3 -65 8 -95 12 -48 6 -60 4 -90 -17 -51 -34 -53 -75 -5
-117 20 -17 46 -32 58 -33 84 -8 493 -10 892 -5 467 7 756 7 795 2 66 -9 245
-17 375 -17 105 -1 146 3 213 22 54 14 82 27 82 36 0 40 -80 164 -145 227 -73
71 -201 123 -275 111z"/>
<path d="M17429 6288 c-2 -9 -8 -38 -13 -73 -4 -23 -8 -50 -10 -62 -3 -11 -7
-37 -10 -56 -35 -219 -88 -374 -158 -457 -24 -29 -142 -125 -195 -159 -29 -18
-54 -36 -55 -40 -4 -17 -7 -75 -9 -157 -4 -214 73 -308 261 -318 134 -7 264
42 359 136 57 56 77 102 115 260 56 238 55 259 -19 482 -24 73 -47 152 -50
176 -15 122 -64 214 -134 250 -34 17 -79 27 -82 18z"/>
<path d="M18687 6189 c-48 -8 -118 -38 -143 -63 -11 -12 -7 -20 26 -50 50 -45
106 -73 176 -89 l57 -13 18 -60 c35 -108 42 -148 45 -240 2 -69 8 -102 23
-132 102 -200 452 -188 539 18 8 21 14 69 14 122 1 92 -6 111 -59 168 -13 14
-23 28 -23 32 0 4 -37 39 -82 78 -116 100 -348 209 -481 226 -23 3 -46 6 -52
8 -5 1 -32 -1 -58 -5z"/>
<path d="M26441 6167 c-5 -7 -13 -26 -17 -42 -9 -39 -43 -112 -68 -150 -43
-61 -113 -115 -226 -172 -215 -108 -282 -156 -330 -236 -24 -38 -26 -104 -6
-170 33 -109 93 -148 221 -142 91 4 156 25 273 89 42 23 91 48 109 55 23 10
35 23 44 50 15 48 76 161 132 247 25 38 48 83 51 99 3 17 6 100 7 185 l1 155
-40 17 c-50 22 -138 30 -151 15z"/>
<path d="M25145 5769 c-229 -134 -307 -162 -430 -154 -172 11 -303 6 -385 -16
-19 -5 -89 -6 -155 -3 -234 12 -271 10 -294 -10 -25 -22 -26 -46 -7 -84 29
-55 25 -55 548 -54 266 0 508 3 538 6 30 4 127 8 215 11 88 2 183 7 210 10 66
8 130 43 131 73 2 34 -48 104 -102 144 -44 31 -187 118 -196 118 -2 0 -35 -18
-73 -41z"/>
<path d="M25085 5200 c-94 -63 -194 -116 -265 -141 -64 -23 -71 -24 -487 -24
-421 0 -423 0 -444 -22 -25 -25 -40 -125 -20 -137 6 -4 188 -9 404 -12 779 -9
1082 -13 1102 -18 35 -7 127 14 171 40 66 39 85 111 47 176 -14 25 -36 39 -98
63 -44 18 -119 48 -166 67 -47 20 -108 38 -135 42 -45 5 -54 2 -109 -34z"/>
<path d="M27335 5113 c-11 -2 -51 -11 -88 -20 l-68 -15 6 -37 c6 -37 7 -194 1
-246 -2 -16 -6 -57 -10 -90 -3 -33 -9 -83 -12 -112 -3 -29 -7 -96 -9 -150 -3
-90 -6 -104 -40 -173 -43 -87 -70 -167 -80 -236 -11 -75 -13 -81 -25 -104 -7
-12 -20 -64 -31 -116 -23 -114 -36 -146 -96 -238 -107 -161 -322 -342 -603
-507 -85 -49 -162 -94 -170 -99 -47 -29 -186 -91 -233 -105 -65 -19 -78 -21
-148 -30 -106 -12 -179 -47 -264 -126 l-29 -28 29 -23 c81 -65 169 -71 316
-24 41 14 156 45 255 71 322 83 441 123 583 195 134 67 422 295 492 390 22 30
50 68 62 84 145 191 203 286 227 376 7 25 14 97 16 160 3 107 6 125 49 250 26
74 49 143 51 153 8 46 16 57 39 57 28 0 59 -36 76 -88 6 -20 16 -42 21 -49 5
-7 5 -12 -1 -15 -14 -5 -15 -26 -8 -93 3 -33 9 -96 12 -140 14 -199 34 -268
121 -411 118 -195 220 -327 371 -481 212 -215 479 -406 668 -479 113 -44 183
-38 385 29 276 92 440 198 440 284 0 24 -44 71 -78 84 -27 11 -42 13 -142 24
-144 16 -174 24 -380 110 -69 29 -161 64 -205 79 -117 38 -356 162 -502 260
-169 113 -178 121 -203 191 -38 103 -39 102 75 162 55 29 195 93 311 142 116
50 242 105 280 123 38 18 74 33 79 35 6 1 21 5 35 8 24 6 105 6 265 0 99 -3
168 16 192 51 12 19 17 50 18 109 l2 84 -51 12 c-50 12 -83 23 -386 128 -232
81 -240 79 -430 -124 -59 -63 -95 -96 -210 -192 -83 -70 -273 -208 -318 -232
-19 -10 -27 -9 -53 10 -43 30 -76 87 -131 219 -42 103 -46 116 -32 131 21 23
19 99 -4 179 -10 36 -18 79 -17 96 3 44 53 138 129 240 36 49 66 99 66 111 0
50 -61 94 -150 108 -53 8 -152 26 -180 31 -32 6 -259 12 -285 7z"/>
<path d="M20338 4994 c-58 -31 -65 -87 -28 -239 6 -27 14 -63 16 -80 3 -16 7
-35 9 -42 2 -6 -1 -42 -6 -80 -6 -37 -12 -133 -14 -212 -4 -188 4 -180 -181
-186 -76 -2 -249 -7 -384 -12 -294 -10 -431 -10 -485 0 -158 28 -272 24 -308
-12 -35 -34 -19 -109 33 -156 21 -19 37 -20 444 -20 231 -1 448 -5 481 -10 70
-11 138 -11 215 -2 78 10 152 -1 184 -26 l26 -22 5 -392 c4 -314 3 -393 -7
-394 -7 0 -22 -3 -33 -5 -52 -12 -304 -11 -370 2 -64 12 -151 11 -215 -3 -14
-3 -252 -6 -530 -7 -379 -2 -514 -5 -543 -15 -20 -7 -35 -16 -32 -21 3 -4 7
-25 11 -46 9 -55 31 -93 57 -98 86 -19 512 -28 1242 -29 364 -1 383 0 460 22
67 19 93 21 169 16 49 -4 97 -8 106 -10 26 -5 219 -18 260 -18 19 1 69 5 110
9 41 5 152 7 245 5 264 -6 409 -6 550 1 87 4 156 2 208 -6 103 -17 376 -13
587 10 30 3 167 4 301 2 47 -1 75 15 94 53 29 55 -4 145 -83 226 -51 51 -226
183 -318 238 -117 70 -266 97 -313 56 -13 -12 -27 -21 -31 -21 -4 0 -67 -61
-141 -136 -74 -74 -155 -151 -181 -170 -57 -42 -44 -41 -538 -50 -184 -3 -356
-6 -383 -8 -60 -3 -99 21 -127 79 -28 57 -30 69 -35 214 -3 68 -8 128 -11 132
-3 5 -5 60 -5 122 -1 111 0 116 35 185 55 110 45 107 391 107 160 0 331 -4
380 -8 50 -4 115 -10 145 -12 60 -5 190 -13 344 -20 116 -6 199 9 309 55 l76
32 -5 51 c-11 105 -27 124 -185 228 -173 113 -180 118 -199 125 -8 3 -31 13
-50 22 -89 40 -193 10 -295 -86 -77 -72 -136 -117 -185 -142 -25 -13 -45 -22
-45 -20 0 1 -22 0 -50 -4 -189 -24 -266 -30 -412 -30 -95 0 -151 5 -166 13
-50 27 -75 103 -92 280 -3 30 -8 65 -11 77 -4 17 13 45 74 122 87 110 142 186
142 198 0 14 -63 63 -105 83 -35 16 -65 24 -140 36 -11 2 -60 6 -110 10 -131
9 -229 28 -241 46 -8 14 -86 10 -116 -7z"/>
<path d="M25138 4505 c-2 -2 -16 -5 -33 -8 -33 -5 -91 -36 -146 -79 -20 -15
-59 -39 -88 -53 -48 -25 -60 -26 -163 -24 -139 3 -268 25 -473 80 -166 44
-222 51 -265 30 -71 -34 -81 -43 -74 -59 5 -10 9 -143 10 -297 2 -265 4 -298
20 -347 4 -14 2 -18 -5 -14 -6 4 -11 4 -11 -1 0 -123 -11 -576 -14 -598 -3
-16 -7 -50 -11 -75 -5 -41 -17 -117 -30 -180 -19 -93 0 -213 41 -268 39 -51
74 -64 167 -61 136 3 222 37 266 103 22 34 26 49 24 110 -1 46 -11 97 -27 146
-26 73 -26 75 -10 125 9 27 19 53 23 56 10 11 105 18 342 25 l226 7 23 -94
c30 -123 61 -182 109 -203 49 -21 117 -35 149 -30 80 12 99 17 132 34 72 37
124 119 115 182 -13 95 -20 197 -30 453 -6 165 -16 269 -30 290 -10 16 -9 25
7 51 25 43 29 64 29 163 l-1 85 96 93 c86 84 95 97 89 121 -13 54 -62 90 -150
111 -27 7 -89 35 -138 63 -73 42 -158 74 -169 63z m-268 -329 c138 -11 125 -2
124 -87 0 -41 -5 -110 -9 -154 -5 -44 -9 -170 -10 -280 -1 -215 -7 -250 -54
-317 -26 -37 -35 -41 -116 -53 -58 -10 -459 -5 -468 5 -11 12 -31 300 -31 445
0 132 25 288 55 346 20 40 60 76 93 85 79 19 254 23 416 10z"/>
<path d="M26196 4303 c-16 -43 -51 -122 -78 -175 -57 -111 -94 -150 -225 -230
-105 -64 -172 -122 -189 -165 -19 -44 -18 -137 2 -174 18 -35 95 -74 171 -86
165 -25 322 26 434 142 68 71 99 131 115 227 14 80 0 214 -26 253 -14 21 -50
162 -53 210 -3 48 -4 50 -42 62 -75 22 -78 21 -109 -64z"/>
<path d="M15919 3366 c-2 -2 -26 -6 -54 -9 -128 -14 -333 -74 -520 -153 -16
-6 -59 -24 -95 -39 -61 -26 -88 -37 -195 -85 -25 -11 -47 -20 -50 -20 -5 0
-229 -104 -257 -120 -46 -26 -387 -194 -455 -225 -77 -35 -153 -82 -153 -94 0
-9 468 -14 1355 -13 893 0 849 -3 941 64 53 38 107 116 124 178 7 25 12 81 13
125 0 68 -4 89 -29 140 -58 118 -187 211 -332 239 -60 11 -284 20 -293 12z"/>
</g>
</svg>
